# xmcd
#
# Track frame offsets:
#	150
#	11972
#	27313
#	40341
#	55754
#	68043
#	81370
#	94331
#	108973
#	123769
#	139147
#	154425
#	168438
#	182287
#	193569
#	207440
#	222148
#	236732
#	251020
#	265973
#	277324
#	289089
#	302026
#	316561
#
# Disc length: 4415
#
# Revision: 2
# Processed by: cddbd v1.5.1PL0 Copyright (c) Steve Scherf et al.
# Submitted via: EasyCDDAExtractor 6.0.0.1
# Normalized: r1:DSETVAR1
#
DISCID=61113d18
DTITLE=Various Artist - 50 ans de chansons de charme CD 1
DYEAR=1999
DGENRE=Rétro
TTITLE0=Charles Trenet - Fleur bleue
TTITLE1=Georges Guétary - Rosa, Nina, Stella
TTITLE2=Damia - La rue de notre amour
TTITLE3=Maurice Chevalier - Donnez-moi la main mam'zelle
TTITLE4=Les Comedian Harmonists - La route du bonheur
TTITLE5=Jean Lumière - Sérénade sans espoir
TTITLE6=Yves Montand - Il chantait
TTITLE7=Tino Rossi - Quand tu reverras ton village
TTITLE8=Merlène Dietrich - Blonde woman
TTITLE9=André Claveau - Ah c'qu'on s'aimait
TTITLE10=Pierre Dudan - Mélancolie
TTITLE11=Luis mariano - Andalousie
TTITLE12=Jacqueline François - Mademoiselle de paris
TTITLE13=Charles Trenet - Tout ça c'est pour nous
TTITLE14=Lina Margy - Le retour des cigognes
TTITLE15=Jacques Pills - Seul dans la nuit
TTITLE16=Edith Piaf - Les amants de paris
TTITLE17=Lys Gauty - Sans y penser
TTITLE18=Georges Guétary - Si vous voulez savoir
TTITLE19=Leo Noël - La valse brune
TTITLE20=Colette Mars - Il allumait les réverbères
TTITLE21=Les Comedian Harmonists - Wir sind von kopf biss fuss auf liebe eingestellt
TTITLE22=Tohama - Simple histoire
TTITLE23=Luis Mariano - Mayumba
EXTD=
EXTT0=
EXTT1=
EXTT2=
EXTT3=
EXTT4=
EXTT5=
EXTT6=
EXTT7=
EXTT8=
EXTT9=
EXTT10=
EXTT11=
EXTT12=
EXTT13=
EXTT14=
EXTT15=
EXTT16=
EXTT17=
EXTT18=
EXTT19=
EXTT20=
EXTT21=
EXTT22=
EXTT23=
PLAYORDER=
